<svg
        viewBox="0 0 24 24"
        fill="none"
        xmlns="http://www.w3.org/2000/svg"
        class="detail-icon"
      >
        <path
          fill-rule="evenodd"
          clip-rule="evenodd"
          d="M2.28282 9.27342C4.69299 5.94267 8.19618 3.96997 12.0001 3.96997C15.8042 3.96997 19.3075 5.94286 21.7177 9.27392C22.2793 10.0479 22.5351 11.0421 22.5351 11.995C22.5351 12.948 22.2792 13.9424 21.7174 14.7165C19.3072 18.0473 15.804 20.02 12.0001 20.02C8.19599 20.02 4.69264 18.0471 2.28246 14.716C1.7209 13.942 1.46509 12.9478 1.46509 11.995C1.46509 11.0419 1.721 10.0475 2.28282 9.27342Z"
          fill="#BFBFBF"
        />
        <path
          id="vector"
          d="M15.0001 12C15.0001 13.6592 13.6593 15 12.0001 15C10.3409 15 9.00012 13.6592 9.00012 12C9.00012 10.3408 10.3409 9 12.0001 9C13.6593 9 15.0001 10.3408 15.0001 12Z"
          fill="#000000"
        />
        <path
          fill-rule="evenodd"
          clip-rule="evenodd"
          d="M12.0001 9.75C10.7551 9.75 9.75012 10.755 9.75012 12C9.75012 13.245 10.7551 14.25 12.0001 14.25C13.2451 14.25 14.2501 13.245 14.2501 12C14.2501 10.755 13.2451 9.75 12.0001 9.75ZM8.25012 12C8.25012 9.92657 9.92669 8.25 12.0001 8.25C14.0736 8.25 15.7501 9.92657 15.7501 12C15.7501 14.0734 14.0736 15.75 12.0001 15.75C9.92669 15.75 8.25012 14.0734 8.25012 12Z"
          fill="white"
        />
      </svg>